<svg width="24" height="24" viewBox="0 0 24 24" fill="none" xmlns="http://www.w3.org/2000/svg">
<path fill-rule="evenodd" clip-rule="evenodd" d="M4.76042 11.5988C6.30063 13.3102 8.65169 14.9766 11.9999 14.9766C15.3481 14.9766 17.6992 13.3102 19.2393 11.5988C20.01 10.7426 20.5685 9.88388 20.9338 9.2392C21.116 8.91759 21.2491 8.65122 21.3355 8.46782C21.3788 8.37619 21.4102 8.30544 21.4303 8.25906C21.4404 8.23588 21.4477 8.21879 21.452 8.20827L21.4565 8.19744C21.4563 8.19767 21.4568 8.19677 22.1284 8.46547C22.8001 8.73416 22.8 8.73447 22.8 8.73481L22.7986 8.73775L22.7962 8.74397L22.7878 8.76417C22.7809 8.78101 22.7709 8.80457 22.758 8.83438C22.7321 8.89397 22.6945 8.97865 22.6444 9.08482C22.5443 9.29707 22.3947 9.59594 22.1927 9.95256C21.7893 10.6644 21.172 11.6143 20.3149 12.5668C20.0504 12.8608 19.762 13.1559 19.4492 13.4447L21.9165 15.912L20.8933 16.9352L18.3253 14.3671C16.8671 15.4237 15.0132 16.2544 12.7234 16.4007L12.7234 19.3174H11.2765L11.2764 16.4007C8.98662 16.2544 7.13275 15.4237 5.6745 14.3671L3.10645 16.9352L2.08331 15.912L4.55064 13.4447C4.23789 13.1559 3.94953 12.8608 3.68492 12.5668C2.82774 11.6143 2.21055 10.6644 1.80719 9.95256C1.6051 9.59592 1.45556 9.29707 1.3555 9.08482C1.30544 8.97865 1.26769 8.89396 1.24186 8.83438C1.22895 8.80457 1.21901 8.78101 1.212 8.76417L1.20367 8.74397L1.20114 8.73775L1.20028 8.73562C1.20015 8.73529 1.1997 8.73415 1.87142 8.46547C2.54314 8.19679 2.54303 8.19653 2.54294 8.19629L2.54788 8.20827C2.55226 8.21881 2.55946 8.23588 2.5695 8.25906C2.5896 8.30544 2.62108 8.37619 2.66428 8.46784C2.75073 8.65122 2.88379 8.91759 3.06605 9.23921C3.43137 9.88388 3.9898 10.7426 4.76042 11.5988ZM2.54294 8.19629C2.54288 8.19613 2.54292 8.19625 2.54294 8.19629V8.19629Z" fill="currentColor"/>
</svg>
