<svg width="24"
 height="24"
  viewBox="0 0 24 24"
   fill="none" 
   xmlns="http://www.w3.org/2000/svg">
<path d="M0.800001 12.04L0.057218 11.7429C-0.0190727 11.9336 -0.0190727 12.1464 0.057218 12.3371L0.800001 12.04ZM23.2 12.04L23.9428 12.3371C24.0191 12.1464 24.0191 11.9336 23.9428 11.7429L23.2 12.04ZM12 19.24C8.29757 19.24 5.69779 17.3973 3.99463 15.5048C3.14249 14.558 2.52498 13.6085 2.12101 12.8956C1.91949 12.54 1.77236 12.2454 1.67675 12.0426C1.62898 11.9413 1.59416 11.863 1.57194 11.8118C1.56083 11.7861 1.55287 11.7673 1.54803 11.7556C1.54561 11.7498 1.54396 11.7458 1.54309 11.7436L1.54236 11.7418L1.54309 11.7436C1.54309 11.7436 1.54279 11.7429 0.800001 12.04C0.0572181 12.3371 0.057218 12.3371 0.057218 12.3371L0.0578675 12.3387L0.0588159 12.3411C0.0588159 12.3411 0.0604799 12.3452 0.0616123 12.348C0.0638771 12.3535 0.0669443 12.361 0.0708206 12.3703C0.0785726 12.3889 0.0895638 12.415 0.103845 12.4479C0.132403 12.5138 0.174151 12.6075 0.229503 12.7249C0.340148 12.9596 0.505511 13.2901 0.728979 13.6844C1.17501 14.4715 1.85749 15.522 2.80535 16.5752C4.70218 18.6827 7.70241 20.84 12 20.84V19.24ZM0.800001 12.04C1.54279 12.3371 1.54257 12.3377 1.54257 12.3377C1.54344 12.3355 1.54561 12.3302 1.54803 12.3244C1.55287 12.3128 1.56083 12.2939 1.57194 12.2682C1.59416 12.217 1.62898 12.1387 1.67675 12.0374C1.77236 11.8346 1.91949 11.5401 2.12101 11.1844C2.52498 10.4715 3.14249 9.522 3.99463 8.57517C5.69779 6.68276 8.29757 4.83999 12 4.83999V3.23999C7.70241 3.23999 4.70218 5.39723 2.80535 7.50483C1.85749 8.558 1.17501 9.60846 0.728979 10.3956C0.505511 10.79 0.340148 11.1204 0.229503 11.3551C0.174151 11.4725 0.132403 11.5662 0.103845 11.6321C0.0895638 11.665 0.0785726 11.6911 0.0708206 11.7097C0.0669443 11.719 0.0638771 11.7265 0.0616123 11.732C0.0604799 11.7348 0.0588159 11.7389 0.0588159 11.7389L0.0578675 11.7413C0.0578675 11.7413 0.0572181 11.7429 0.800001 12.04ZM12 4.83999C15.7024 4.83999 18.3023 6.68276 20.0053 8.57517C20.8575 9.522 21.4751 10.4715 21.8791 11.1844C22.0805 11.5401 22.2277 11.8346 22.3232 12.0374C22.3711 12.1387 22.406 12.217 22.428 12.2682C22.4392 12.2939 22.4472 12.3128 22.452 12.3244C22.4544 12.3302 22.456 12.3342 22.457 12.3364L22.4576 12.3382C22.4576 12.3382 22.4573 12.3371 23.2 12.04C23.9428 11.7429 23.9428 11.7429 23.9428 11.7429L23.9421 11.7413L23.9412 11.7389C23.9412 11.7389 23.9396 11.7348 23.9384 11.732C23.9362 11.7265 23.9332 11.719 23.9292 11.7097C23.9215 11.6911 23.9104 11.665 23.8962 11.6321C23.8676 11.5662 23.826 11.4725 23.7706 11.3551C23.6599 11.1204 23.4946 10.7899 23.2711 10.3956C22.825 9.60846 22.1426 8.558 21.1946 7.50483C19.2978 5.39723 16.2976 3.23999 12 3.23999V4.83999ZM23.2 12.04C22.4573 11.7429 22.4575 11.7424 22.4575 11.7424C22.4565 11.7445 22.4544 11.7498 22.452 11.7556C22.4472 11.7672 22.4392 11.7861 22.428 11.8118C22.406 11.863 22.3711 11.9413 22.3232 12.0426C22.2277 12.2454 22.0805 12.5399 21.8791 12.8956C21.4751 13.6085 20.8575 14.558 20.0053 15.5048C18.3023 17.3973 15.7024 19.24 12 19.24V20.84C16.2976 20.84 19.2978 18.6827 21.1946 16.5752C22.1426 15.522 22.825 14.4715 23.2711 13.6844C23.4946 13.2901 23.6599 12.9596 23.7706 12.7249C23.826 12.6075 23.8676 12.5138 23.8962 12.4479C23.9104 12.415 23.9215 12.3889 23.9292 12.3703C23.9332 12.361 23.9362 12.3535 23.9384 12.348C23.9396 12.3452 23.9412 12.3411 23.9412 12.3411L23.9421 12.3387C23.9421 12.3387 23.9428 12.3371 23.2 12.04ZM12 14.44C10.6745 14.44 9.60002 13.3655 9.60002 12.04H8.00001C8.00001 14.2491 9.79088 16.04 12 16.04V14.44ZM14.4 12.04C14.4 13.3655 13.3255 14.44 12 14.44V16.04C14.2092 16.04 16 14.2491 16 12.04H14.4ZM12 9.64C13.3255 9.64 14.4 10.7145 14.4 12.04H16C16 9.83087 14.2092 8.04 12 8.04V9.64ZM12 8.04C9.79088 8.04 8.00001 9.83087 8.00001 12.04H9.60002C9.60002 10.7145 10.6745 9.64 12 9.64V8.04Z" fill="currentColor"/>
</svg>
