<svg width="150" height="47" viewBox="0 0 150 47" fill="none" xmlns="http://www.w3.org/2000/svg">
<g clip-path="url(#clip0_110_1669)">
<path d="M10.4258 40.6916L0.5 34.9612V12.039L10.4258 6.30774L20.3508 0.577393L30.2774 6.30773L40.2033 12.039V34.9612L30.2775 40.6914L20.3508 46.4226L10.4258 40.6916ZM20.6008 5.04618L19.8508 4.61321V5.19481L12.2998 9.55451L4.49888 14.0586L4.24888 14.2029V14.4916V32.5077V32.7963L4.49888 32.9408L12.2998 37.4447L20.1008 41.9487L20.3508 42.0932L20.6008 41.9487L28.4026 37.4447L36.2035 32.9408L36.4535 32.7963V32.5077V14.4873V14.1987L36.2035 14.0543L28.4026 9.55023L20.6008 5.04618Z" fill="white"/>
<path d="M28.4026 37.4447L20.6008 41.9487L20.3508 42.0932L20.1008 41.9487L12.2998 37.4447L4.49888 32.9408L4.24888 32.7963V32.5077V14.4916V14.2029L4.49888 14.0586L12.2998 9.55451L19.8508 5.19481V4.61321L20.6008 5.04618L28.4026 9.55023L36.2035 14.0543L36.4535 14.1987V14.4873V32.5077V32.7963L36.2035 32.9408L28.4026 37.4447ZM28.4026 37.4447L28.1526 37.0117M10.4258 40.6916L0.5 34.9612V12.039L10.4258 6.30774L20.3508 0.577393L30.2774 6.30773L40.2033 12.039V34.9612L30.2775 40.6914L20.3508 46.4226L10.4258 40.6916Z" stroke="white"/>
<path d="M52.698 19.9382V11.4798H49.2314V9.64534H58.3831V11.4743H54.9166V19.9326L52.698 19.9382ZM59.577 19.9382V9.64534H67.1936V11.4743H61.8025V13.7816H66.8941V15.6105H61.8025V18.1064H67.4266V19.9354L59.577 19.9382ZM67.9174 19.9382L71.4935 14.7092L68.2045 9.64534H70.7433L72.8288 12.8761L74.9864 9.64118H77.2923L73.9894 14.5276L77.5655 19.9354H74.917L72.6652 16.4023L70.3315 19.9382H67.9174ZM78.5513 19.9382V9.64534H80.7769V13.6041H85.0629V9.64534H87.2815V19.9382H85.0629V15.4331H80.7769V19.9382H78.5513ZM93.9427 9.3999C95.4986 9.3999 96.716 9.8769 97.6006 10.8323C98.4853 11.7877 98.9248 13.1257 98.9248 14.8049C98.9248 16.4841 98.4881 17.7945 97.6006 18.736C96.7132 19.7066 95.4846 20.1836 93.9011 20.1836C92.4951 20.1836 91.3498 19.7884 90.4762 18.9966C89.4238 18.0538 88.8913 16.6477 88.8913 14.8049C88.8913 13.1119 89.3281 11.789 90.2155 10.8323C91.103 9.87551 92.3454 9.3999 93.9427 9.3999ZM93.8748 11.2427C93.4852 11.2293 93.0982 11.312 92.7481 11.4835C92.3979 11.6549 92.0954 11.9098 91.867 12.2258C91.39 12.854 91.1571 13.7137 91.1571 14.8049C91.1571 15.8962 91.39 16.7462 91.867 17.3715C92.1026 17.6855 92.4106 17.9377 92.7648 18.1067C93.1191 18.2757 93.5089 18.3565 93.9011 18.3422C94.257 18.3529 94.6109 18.2864 94.9386 18.1474C95.2662 18.0083 95.5599 17.7999 95.7994 17.5365C96.3721 16.9084 96.6591 15.9946 96.6591 14.8063C96.6591 13.715 96.4276 12.8553 95.9353 12.2272C95.4445 11.5713 94.7622 11.2441 93.8748 11.2441V11.2427ZM99.6209 17.9719C99.6749 17.9814 99.7297 17.986 99.7846 17.9858C100.454 17.9858 100.894 17.5629 101.095 16.7295C101.296 15.8962 101.382 14.5595 101.382 12.7167V9.64534H108.986V19.9382H106.768V11.4798H103.614V13.1049C103.614 15.0836 103.476 16.5576 103.19 17.5005C102.932 18.4004 102.508 19.0424 101.949 19.4418C101.466 19.7928 100.882 19.979 100.285 19.9728C100.094 19.9728 99.8761 19.9603 99.6292 19.9465V17.9719H99.6209ZM115.634 9.3999C117.189 9.3999 118.407 9.8769 119.291 10.8323C120.176 11.7877 120.616 13.1257 120.616 14.8049C120.616 16.4841 120.179 17.7945 119.291 18.736C118.405 19.7066 117.177 20.1836 115.593 20.1836C114.186 20.1836 113.041 19.7884 112.166 18.9966C111.116 18.0538 110.582 16.6477 110.582 14.8049C110.582 13.1119 111.02 11.789 111.906 10.8323C112.792 9.87551 114.036 9.3999 115.634 9.3999ZM115.566 11.2427C115.176 11.2292 114.789 11.3118 114.439 11.4833C114.089 11.6547 113.787 11.9098 113.559 12.2258C113.081 12.854 112.848 13.7137 112.848 14.8049C112.848 15.8962 113.081 16.7462 113.559 17.3715C114.038 17.9969 114.734 18.3422 115.593 18.3422C115.949 18.353 116.302 18.2866 116.63 18.1475C116.957 18.0085 117.25 17.8 117.489 17.5365C118.064 16.9084 118.35 15.9946 118.35 14.8063C118.35 13.715 118.118 12.8553 117.627 12.2272C117.135 11.5713 116.453 11.2441 115.566 11.2441V11.2427ZM122.213 19.9382V9.64534H129.066V11.4743H124.438V19.9326L122.213 19.9382ZM138.909 19.9382H136.81V12.9898L132.524 19.9382H130.305V9.64534H132.394V16.5936L136.68 9.64534H138.898V19.9382H138.909ZM149.46 19.9382H147.362V12.9898L143.075 19.9382H140.864V9.64534H142.953V16.5936L147.239 9.64534H149.457V19.9382H149.46Z" fill="white"/>
<path d="M50.4326 35.5692V25.2764H51.4032V29.672H57.4655V25.2764H58.4361V35.5692H57.4655V30.5331H51.4032V35.5692H50.4326ZM59.4844 35.5692L63.4737 25.2764H64.7217L68.6971 35.5692H67.6405L66.5978 32.8265H61.4673L60.4107 35.5692H59.4844ZM61.7918 32.0112H66.2969L64.0575 26.1555L61.7918 32.0112ZM71.3719 25.2806H77.5867V34.6998H78.3091V37.6894H77.3385V35.5692H69.7329V37.6852H68.7623V34.6957C68.9449 34.6993 69.1264 34.6661 69.296 34.5982C69.4656 34.5303 69.6198 34.4291 69.7495 34.3005C70.264 33.768 70.6813 32.8667 70.9975 31.5841C71.1366 31.0595 71.2386 30.5257 71.3025 29.9867C71.3455 29.5084 71.3732 28.8941 71.3732 28.1301V25.2764L71.3719 25.2806ZM70.5233 34.6998H76.6133V26.1514H72.2496V28.37C72.2496 29.941 72.0555 31.3179 71.6797 32.4785C71.5073 33.0896 71.2501 33.6735 70.9157 34.2131C70.8036 34.3859 70.673 34.5459 70.526 34.6901L70.5233 34.6998ZM79.7262 35.5734V25.2764H86.7619V26.1375H80.6996V29.8911H86.4568V30.7508H80.6996V34.7095H86.9837V35.5692L79.7262 35.5734ZM93.5604 25.2806H94.5311V29.6761H95.6404L98.9349 25.2806H100.121L96.4806 30.0699L100.47 35.5706H99.2885L95.6182 30.5483H94.5338V35.5706H93.5632V30.5469H92.4789L88.8085 35.5692H87.6257L91.6136 30.0699L87.971 25.2778H89.1538L92.4484 29.6734H93.5577V25.2778L93.5604 25.2806ZM101.583 35.5734V25.2764H102.554V29.672H108.616V25.2764H109.587V35.5692H108.616V30.5331H102.554V35.5692L101.583 35.5734ZM116.083 25.0352C117.571 25.0352 118.739 25.4997 119.587 26.4412C120.436 27.3827 120.881 28.7346 120.881 30.4277C120.881 32.1207 120.45 33.445 119.587 34.4003C118.725 35.3557 117.585 35.8202 116.121 35.8202C114.77 35.8202 113.673 35.4375 112.839 34.6596C111.81 33.7043 111.295 32.3024 111.295 30.4277C111.295 28.7208 111.726 27.3966 112.589 26.4412C113.451 25.4858 114.605 25.0352 116.078 25.0352H116.083ZM116.083 25.8824C114.902 25.8824 113.985 26.3192 113.31 27.2191C112.685 28.0247 112.364 29.1035 112.364 30.4277C112.364 31.7519 112.685 32.8168 113.31 33.6488C113.992 34.5362 114.909 34.973 116.062 34.973C117.147 34.973 118.023 34.6042 118.69 33.8817C119.455 33.0498 119.83 31.8878 119.83 30.4277C119.83 29.1035 119.511 28.0247 118.886 27.2191C118.203 26.3192 117.271 25.8824 116.09 25.8824H116.083ZM130.834 28.0524L129.863 28.2979C129.668 27.6295 129.404 27.097 129.056 26.7143C128.514 26.1597 127.778 25.8685 126.818 25.8685C125.608 25.8685 124.705 26.333 124.08 27.2731C123.538 28.0802 123.273 29.1714 123.273 30.5511C123.273 31.8614 123.565 32.9083 124.135 33.7043C124.761 34.5501 125.637 34.973 126.777 34.973C127.886 34.973 128.734 34.5908 129.321 33.8263C129.668 33.3895 129.891 32.803 130.014 32.093L131.016 32.2428C130.501 34.6319 129.083 35.8202 126.734 35.8202C125.509 35.8202 124.515 35.4653 123.73 34.7414C122.729 33.7985 122.215 32.3939 122.215 30.5234C122.215 28.7901 122.631 27.452 123.453 26.4689C124.273 25.5135 125.385 25.0352 126.803 25.0352C127.971 25.0352 128.902 25.3222 129.597 25.8824C130.209 26.401 130.626 27.1303 130.834 28.0524ZM135.363 35.5734V26.1444H131.554V25.2834H140.151V26.1444H136.342V35.5734H135.363ZM149.446 35.5734H148.476V26.4925L142.817 35.5692H141.539V25.2764H142.509V34.3407L148.154 25.2764H149.446V35.5692V35.5734Z" fill="white" stroke="white" stroke-width="0.8"/>
<path d="M27.2665 22.3352H27.7664V21.8352V14.9863H31.9973V33.3765H27.7664V26.5413V26.0413H27.2664H20.8516V22.336L27.2665 22.3352Z" fill="white" stroke="white"/>
<path d="M13.8917 19.2378V18.7378H13.3917H7.84668V14.9863H24.1685V18.7378H18.6226H18.1226V19.2378V33.3774H13.8917V19.2378Z" fill="white" stroke="white"/>
</g>
<defs>
<clipPath id="clip0_110_1669">
<rect width="150" height="47" fill="white"/>
</clipPath>
</defs>
</svg>
